<svg xmlns="http://www.w3.org/2000/svg" viewBox="0 0 22.65 25.6"><defs><style>.cls-1{fill:#010101;}</style></defs><title>icon-Asset 1color-logo</title><g id="Layer_2" data-name="Layer 2"><g id="Layer_1-2" data-name="Layer 1"><path class="cls-1" d="M18.17,8.93H7.1a.39.39,0,1,1,0-.78H18.17a1,1,0,0,0,.9-1V1.83a1,1,0,0,0-.9-1H3.59a1,1,0,0,0-.9,1V7.1a1,1,0,0,0,.9,1h.59a.39.39,0,1,1,0,.78H3.59A1.76,1.76,0,0,1,1.92,7.1V1.83A1.76,1.76,0,0,1,3.59,0H18.17a1.76,1.76,0,0,1,1.67,1.82V7.1A1.76,1.76,0,0,1,18.17,8.93Z"/><path class="cls-1" d="M2.3,4.85H.39a.39.39,0,1,1,0-.78H2.3a.39.39,0,1,1,0,.78Z"/><path class="cls-1" d="M11.2,16.84a.39.39,0,0,1-.39-.39V14.81A2.22,2.22,0,0,1,13,12.6h7.4a1.44,1.44,0,0,0,1.44-1.44V6.29a1.44,1.44,0,0,0-1.44-1.44h-1a.39.39,0,0,1,0-.78h1a2.22,2.22,0,0,1,2.22,2.22v4.86a2.22,2.22,0,0,1-2.22,2.22H13a1.44,1.44,0,0,0-1.44,1.44v1.64a.39.39,0,0,1-.39.39Z"/><path class="cls-1" d="M12,25.6H10.43a1.54,1.54,0,0,1-1.54-1.54V18.38a2.31,2.31,0,0,1,4.63,0v5.67A1.54,1.54,0,0,1,12,25.6Zm-.77-8.76a1.54,1.54,0,0,0-1.54,1.54v5.67a.77.77,0,0,0,.77.77H12a.77.77,0,0,0,.77-.77V18.38A1.54,1.54,0,0,0,11.2,16.84Z"/><path class="cls-1" d="M13.13,19.12H9.28a.39.39,0,0,1,0-.78h3.85a.39.39,0,1,1,0,.78Z"/><path class="cls-1" d="M5.64,10.58A1.85,1.85,0,0,1,3.79,8.73V.39a.39.39,0,0,1,.78,0V8.73a1.07,1.07,0,0,0,2.14,0V4.45a1.66,1.66,0,0,1,3.31,0,.75.75,0,0,0,.75.75h.16a.91.91,0,0,0,.91-.91V3.76a1.61,1.61,0,0,1,3.21,0V4.3a.9.9,0,0,0,1.79,0V.39a.39.39,0,0,1,.78,0V4.3a1.67,1.67,0,0,1-3.34,0V3.76a.83.83,0,0,0-1.66,0v.53A1.69,1.69,0,0,1,10.93,6h-.16A1.53,1.53,0,0,1,9.24,4.45a.88.88,0,0,0-1.76,0V8.73a1.85,1.85,0,0,1-1.85,1.85Z"/><path class="cls-1" d="M3.08,18.26a1.71,1.71,0,0,1-1.69-1.72,9.38,9.38,0,0,1,1.36-3,.4.4,0,0,1,.66,0,9.38,9.38,0,0,1,1.36,3,1.71,1.71,0,0,1-1.69,1.72Zm0-3.77a7,7,0,0,0-.92,2.06.92.92,0,1,0,1.83,0A7,7,0,0,0,3.08,14.49Z"/><path class="cls-1" d="M7.57,15.62A1.71,1.71,0,0,1,5.88,13.9a9.38,9.38,0,0,1,1.36-3,.4.4,0,0,1,.66,0,9.38,9.38,0,0,1,1.36,3,1.71,1.71,0,0,1-1.69,1.72Zm0-3.77a7,7,0,0,0-.92,2.06.92.92,0,1,0,1.83,0A7,7,0,0,0,7.57,11.84Z"/></g></g></svg>