<svg xmlns="http://www.w3.org/2000/svg" viewBox="0 0 24.28 28.13"><defs><style>.cls-1{fill:#010101;}</style></defs><title>icon-Asset 4bursh-icon</title><g id="Layer_2" data-name="Layer 2"><g id="Layer_1-2" data-name="Layer 1"><path class="cls-1" d="M24.09,1.31A2.21,2.21,0,0,0,20,1.37L15.89,11.82a2.7,2.7,0,0,0-3.13.92l-1.52,2.09a17.75,17.75,0,0,1-8.5,3.92.51.51,0,0,0-.21.92S4.42,21,6.85,22.48c1,.63,2.09,1.3,3.21,2a52,52,0,0,0,5.52,2.94l.13.06a7,7,0,0,0,2.5.69,1.06,1.06,0,0,0,1-.45c2.85-4.61,2.28-8.24,2.16-8.88l.31-2.54h0A2.7,2.7,0,0,0,20,13.44L24.13,3h0a2.2,2.2,0,0,0,0-1.68Zm-5.76,25.8a3.06,3.06,0,0,1-1.74-.38,15,15,0,0,0,1.21-2,.51.51,0,1,0-.92-.42,15.51,15.51,0,0,1-1.23,2c-.58-.26-1.24-.58-2-1A11.08,11.08,0,0,0,16,22a.51.51,0,1,0-.94-.38,10.66,10.66,0,0,1-2.32,3.23c-1.43-.79-3-1.73-4.69-2.76a30,30,0,0,0,3.82-2.44.51.51,0,0,0-.64-.79,32.38,32.38,0,0,1-4.16,2.61c-1-.63-2-1.28-3-1.93a18.86,18.86,0,0,0,7.61-3.77l8.67,3.43a12.45,12.45,0,0,1-2.05,7.92Zm2.29-11-.24,2-8-3.17,1.17-1.6a1.68,1.68,0,0,1,2-.57l.44.17,3.15,1.25.44.18h0a1.67,1.67,0,0,1,1.05,1.77ZM23.16,2.62,19,13.07l-2.21-.88L20.95,1.74h0a1.2,1.2,0,1,1,2.23.88ZM6.67,25a.44.44,0,0,1,.11.7.45.45,0,0,1-.41.21.51.51,0,0,1-.29-.1,3.69,3.69,0,0,0-3.62-.36h0a.51.51,0,1,1-.48-.9A4.71,4.71,0,0,1,6.67,25ZM2.92,23l-2.45-.3a.51.51,0,1,1,.12-1L3,22a.51.51,0,1,1,0,1l-.13,0Z"/></g></g></svg>