<svg xmlns="http://www.w3.org/2000/svg" viewBox="0 0 21.16 22.38"><defs><style>.cls-1{fill:#010101;}</style></defs><title>icon-Asset 3erazer-icon</title><g id="Layer_2" data-name="Layer 2"><g id="Layer_1-2" data-name="Layer 1"><path class="cls-1" d="M20.24,6.61,14.56.92a3.13,3.13,0,0,0-4.43,0L.83,10.22a2.84,2.84,0,0,0,0,4l5.09,5.12a.57.57,0,0,0,.4.17l5.17.06a.57.57,0,0,0,.4-.17L20.24,11a3.13,3.13,0,0,0,0-4.43Zm-9,11.82-4.69-.06L1.62,13.43a1.71,1.71,0,0,1,0-2.42L5.29,7.35l8.53,8.53Zm8.19-8.21L14.61,15,6.09,6.52l4.83-4.83a2,2,0,0,1,2.81,0L19.44,7.4a2,2,0,0,1,0,2.81Z"/><path class="cls-1" d="M14.75,22.38a.57.57,0,1,0,0-1.14H3.07a.57.57,0,0,0,0,1.14Z"/></g></g></svg>