<svg xmlns="http://www.w3.org/2000/svg" viewBox="0 0 490 262.5"><title>icon-Asset 1rainbow</title><g id="Layer_2" data-name="Layer 2"><g id="Layer_1-2" data-name="Layer 1"><path d="M245,0A245.26,245.26,0,0,0,0,245a17.5,17.5,0,1,0,35,0,210,210,0,0,1,420,0,17.5,17.5,0,1,0,35,0A245.26,245.26,0,0,0,245,0Z"/><path d="M245,70A175.19,175.19,0,0,0,70,245a17.5,17.5,0,1,0,35,0,140,140,0,0,1,280,0,17.5,17.5,0,1,0,35,0A175.19,175.19,0,0,0,245,70Z"/><path d="M245,140A105.11,105.11,0,0,0,140,245a17.5,17.5,0,1,0,35,0,70,70,0,0,1,140,0,17.5,17.5,0,1,0,35,0A105.11,105.11,0,0,0,245,140Z"/></g></g></svg>