<svg xmlns="http://www.w3.org/2000/svg" viewBox="0 0 505.76 264.25"><title>icon-Asset 1rainbow-icon</title><g id="Layer_2" data-name="Layer 2"><g id="Layer_1-2" data-name="Layer 1"><path d="M363,264.24a11.38,11.38,0,0,1-11.38-11.38,98.77,98.77,0,1,0-197.55,0,11.38,11.38,0,0,1-22.77,0,121.54,121.54,0,1,1,243.08,0A11.38,11.38,0,0,1,363,264.24Z"/><path d="M406.81,264.24a11.38,11.38,0,0,1-11.38-11.38c0-78.6-63.95-142.55-142.55-142.55S110.33,174.26,110.33,252.86a11.38,11.38,0,1,1-22.77,0c0-91.16,74.16-165.32,165.32-165.32S418.2,161.7,418.2,252.86a11.38,11.38,0,0,1-11.38,11.38Z"/><path d="M450.59,264.25a11.38,11.38,0,0,1-11.38-11.38c0-102.74-83.59-186.33-186.33-186.33S66.55,150.13,66.55,252.87a11.38,11.38,0,0,1-22.77,0c0-115.3,93.8-209.1,209.09-209.1S462,137.57,462,252.87a11.38,11.38,0,0,1-11.38,11.38Z"/><path d="M494.37,264.25A11.38,11.38,0,0,1,483,252.87C483,126,379.76,22.76,252.88,22.76S22.77,126,22.77,252.87a11.38,11.38,0,0,1-22.77,0C0,113.44,113.44,0,252.88,0S505.76,113.43,505.76,252.87a11.38,11.38,0,0,1-11.38,11.38Z"/></g></g></svg>